<svg width="230" height="230" viewBox="0 0 230 230" fill="none" xmlns="http://www.w3.org/2000/svg">
<path d="M88.2407 170.292H120.293V188.967H62.9433V170.954L93.6711 133.736H63.2082V115.061H119.631V133.074L88.2407 170.292ZM169.841 133.869H157.656V188.967H135.007V133.869H126.795V115.061H135.007V112.942C135.007 103.848 137.612 96.9602 142.821 92.2804C148.031 87.5123 155.669 85.1283 165.735 85.1283C167.413 85.1283 168.649 85.1724 169.443 85.2607V104.466C165.117 104.201 162.07 104.819 160.305 106.32C158.539 107.821 157.656 110.514 157.656 114.399V115.061H169.841V133.869ZM191.079 190.027C187.105 190.027 183.838 188.879 181.278 186.583C178.805 184.199 177.569 181.285 177.569 177.841C177.569 174.31 178.805 171.352 181.278 168.967C183.838 166.583 187.105 165.391 191.079 165.391C194.964 165.391 198.143 166.583 200.615 168.967C203.176 171.352 204.456 174.31 204.456 177.841C204.456 181.285 203.176 184.199 200.615 186.583C198.143 188.879 194.964 190.027 191.079 190.027Z" fill="white"/>
</svg>
